<?xml version="1.0" standalone="no"?>
<!DOCTYPE svg PUBLIC "-//W3C//DTD SVG 20010904//EN"
 "http://www.w3.org/TR/2001/REC-SVG-20010904/DTD/svg10.dtd">
<svg version="1.0" xmlns="http://www.w3.org/2000/svg"
 width="512.000000pt" height="512.000000pt" viewBox="0 0 512.000000 512.000000"
 preserveAspectRatio="xMidYMid meet">
<metadata>
Created by potrace 1.14, written by Peter Selinger 2001-2017
</metadata>
<g transform="translate(0.000000,512.000000) scale(0.100000,-0.100000)"
fill="#000000" stroke="none">
<path d="M1514 5101 c-117 -39 -193 -107 -245 -216 -35 -74 -37 -90 -38 -242
l-1 -123 -276 0 c-300 0 -319 -3 -343 -57 -7 -16 -11 -139 -11 -359 0 -363 2
-378 55 -402 17 -8 92 -12 223 -12 185 -1 200 -2 242 -24 26 -13 58 -41 75
-65 26 -37 30 -51 30 -111 0 -60 -4 -74 -30 -111 -17 -24 -49 -52 -75 -65 -42
-22 -56 -23 -243 -24 -131 0 -206 -4 -220 -12 -21 -11 -50 -44 -53 -60 -1 -5
-2 -273 -3 -598 l-1 -590 -89 0 c-49 0 -101 -4 -115 -10 -27 -10 -69 -67 -60
-82 3 -4 -19 -18 -49 -31 -68 -31 -118 -75 -148 -132 -16 -31 -30 -45 -44 -45
-23 0 -65 -26 -80 -49 -38 -62 11 -151 83 -151 11 0 25 -13 34 -34 28 -57 74
-102 143 -135 46 -23 65 -38 65 -51 0 -10 11 -32 24 -47 23 -27 28 -28 130
-31 l106 -4 0 -275 c0 -298 3 -318 57 -342 16 -7 140 -11 359 -11 298 0 339 2
365 17 15 9 32 24 36 32 4 9 10 113 13 231 5 204 6 217 29 253 37 60 94 91
166 92 75 0 126 -25 169 -84 l31 -43 5 -216 c3 -120 9 -224 13 -233 4 -8 21
-23 36 -32 27 -15 82 -17 620 -17 l591 0 1 -122 c1 -158 3 -169 44 -255 42
-85 101 -142 195 -187 58 -28 75 -31 160 -31 86 0 101 3 160 31 94 45 153 102
195 187 40 83 43 100 44 260 l1 117 275 0 c176 0 283 4 298 11 55 25 57 38 57
404 0 366 -2 379 -57 404 -15 7 -100 11 -217 11 -217 0 -243 6 -301 66 -85 87
-64 240 42 305 36 23 49 24 253 29 118 3 222 9 231 13 8 4 23 21 32 36 15 27
17 82 17 620 l0 591 114 0 c178 0 259 23 346 98 92 78 135 177 135 307 0 80
-4 97 -32 157 -44 93 -100 151 -191 196 -76 37 -76 37 -224 41 l-148 3 0 274
c0 175 -4 282 -11 297 -25 55 -38 57 -403 57 -219 0 -343 -4 -359 -11 -50 -23
-56 -50 -57 -263 -1 -127 -6 -207 -13 -224 -39 -89 -94 -126 -188 -127 -57 0
-71 4 -107 29 -82 56 -86 72 -92 316 -5 234 -9 251 -61 269 -22 8 -215 11
-615 11 l-584 0 -1 123 c-1 67 -2 127 -3 132 -22 134 -109 250 -232 307 -83
39 -198 46 -280 19z"/>
</g>
</svg>
